<?xml version="1.0" encoding="UTF-8" standalone="no"?>
<svg xmlns:svg="http://www.w3.org/2000/svg" xmlns="http://www.w3.org/2000/svg" xmlns:xlink="http://www.w3.org/1999/xlink" version="1.0" width="192.756" height="192.756" viewBox="0 0 192.756 192.756" id="svg2" xml:space="preserve">
	<g id="switch6">

		<g id="g10">
			<g id="Layer_1">
				<g id="g13">

<path d="M 170.487,118.443 L 169.95,118.443 L 169.95,120.81 L 170.272,120.81 L 170.272,118.874 L 171.024,120.81 L 171.455,120.81 L 172.1,118.874 L 172.1,120.81 L 172.53,120.81 L 172.53,118.443 L 171.885,118.443 L 171.239,120.273 L 170.487,118.443 z " style="fill-rule:evenodd" id="path17"/>
<path d="M 169.412,118.443 L 167.477,118.443 L 167.477,118.767 L 168.337,118.767 L 168.337,120.81 L 168.659,120.81 L 168.659,118.767 L 169.411,118.767 L 169.411,118.443 L 169.412,118.443 z " style="fill-rule:evenodd" id="path19"/>
<path d="M 32.05,157.139 L 22.806,136.934 L 22.806,152.948 C 22.806,154.559 23.129,155.528 23.344,155.958 C 23.773,156.495 24.419,156.71 25.386,156.71 L 26.246,156.71 L 26.246,157.14 L 18.077,157.14 L 18.077,156.71 L 18.722,156.71 C 19.689,156.71 20.55,156.495 20.765,155.743 C 20.98,155.313 21.195,154.345 21.195,152.948 L 21.195,137.471 C 21.195,136.287 20.98,135.321 20.765,134.998 C 20.765,134.568 20.55,134.137 20.119,133.814 C 19.689,133.814 18.722,133.599 18.077,133.599 L 18.077,133.171 L 24.956,133.171 L 33.124,151.657 L 42.152,133.171 L 48.601,133.171 L 48.601,133.599 L 47.85,133.599 C 46.668,133.599 46.023,133.814 45.593,134.568 C 45.378,134.998 45.378,135.964 45.378,137.47 L 45.378,152.947 C 45.378,154.558 45.593,155.527 45.808,155.957 C 46.238,156.494 46.99,156.709 47.85,156.709 L 48.602,156.709 L 48.602,157.139 L 38.714,157.139 L 38.714,156.709 L 39.574,156.709 C 40.541,156.709 41.185,156.494 41.615,155.742 C 41.938,155.312 42.153,154.344 42.153,152.947 L 42.153,136.933 L 32.48,157.138 L 32.05,157.138 L 32.05,157.139 z " style="fill-rule:evenodd" id="path21"/>
<path d="M 55.696,156.709 L 55.696,157.139 L 46.99,157.139 L 46.99,156.709 L 47.635,156.709 C 48.28,156.709 49.034,156.494 49.462,155.957 C 49.677,155.742 49.677,154.99 49.677,153.807 L 49.677,140.049 C 49.677,139.082 49.677,138.33 49.677,138.115 C 49.462,137.9 49.247,137.47 49.034,137.47 C 48.602,137.146 47.85,136.933 47.635,136.933 L 46.99,136.933 L 46.99,136.501 L 55.696,136.501 L 55.696,136.933 L 54.729,136.933 C 54.084,136.933 53.333,137.146 52.902,137.685 C 52.902,138.115 52.687,138.867 52.687,140.048 L 52.687,153.806 C 52.687,154.773 52.902,155.527 52.902,155.742 C 52.902,155.957 53.117,156.279 53.334,156.494 C 53.87,156.709 54.299,156.709 54.73,156.709 L 55.696,156.709 z " style="fill-rule:evenodd" id="path23"/>
<path d="M 71.711,135.965 L 71.926,142.951 L 71.711,142.951 C 70.959,141.017 70.099,139.297 68.916,138.33 C 68.056,137.471 66.66,136.934 65.047,136.934 C 63.864,136.934 62.789,137.471 61.607,138.116 C 60.641,138.653 59.78,139.835 59.35,141.448 C 58.598,142.952 58.383,144.995 58.383,147.143 C 58.383,149.079 58.598,150.797 59.028,151.981 C 59.78,153.377 60.641,154.559 61.607,155.313 C 62.79,155.958 64.079,156.28 65.477,156.28 C 66.661,156.28 67.842,155.958 68.702,155.528 C 69.884,154.991 70.959,153.807 71.927,152.411 L 72.357,152.948 C 71.497,154.559 70.315,155.743 68.917,156.495 C 67.842,157.14 66.23,157.679 64.403,157.679 C 61.393,157.679 58.598,156.281 56.986,153.808 C 55.911,151.982 54.944,149.831 54.944,147.144 C 54.944,145.318 55.374,143.382 56.342,141.664 C 56.986,139.836 58.384,138.332 59.995,137.687 C 61.392,136.718 63.22,135.966 64.832,135.966 C 66.444,135.966 67.841,136.503 69.131,137.148 C 69.346,137.148 69.883,137.472 69.883,137.472 C 70.098,137.472 70.529,137.148 70.529,137.148 C 70.744,136.935 70.959,136.503 71.282,135.966 L 71.711,135.966 L 71.711,135.965 z " style="fill-rule:evenodd" id="path25"/>
<path d="M 79.557,146.605 L 79.557,149.83 L 84.826,157.139 L 90.306,157.139 L 90.306,156.709 C 89.232,156.709 88.264,156.279 87.618,155.957 C 87.081,155.527 86.005,154.344 85.253,152.947 L 80.954,147.142 C 82.782,146.712 83.964,145.96 84.825,144.994 C 85.791,144.133 86.005,143.166 86.005,141.662 C 86.005,140.803 85.791,139.619 84.825,138.867 C 84.394,137.9 83.427,137.146 82.351,136.933 C 81.706,136.824 80.739,136.716 79.556,136.609 L 79.556,137.685 C 80.31,137.9 80.953,138.222 81.599,138.652 C 82.351,139.619 82.781,140.802 82.781,142.199 C 82.781,143.381 82.351,144.779 81.168,145.531 C 80.739,145.961 80.204,146.283 79.557,146.605 z " style="fill-rule:evenodd" id="path27"/>
<path d="M 79.557,137.686 L 79.557,136.61 C 79.02,136.61 78.375,136.503 77.73,136.503 L 70.421,136.503 L 70.421,136.935 L 71.066,136.935 C 71.711,136.935 72.463,137.148 72.893,137.687 C 73.108,137.902 73.108,138.869 73.108,140.05 L 73.108,153.808 C 73.108,154.775 73.108,155.744 72.893,155.958 C 72.463,156.495 72.033,156.71 71.066,156.71 L 70.421,156.71 L 70.421,157.14 L 79.127,157.14 L 79.127,156.71 L 78.16,156.71 C 77.515,156.71 76.763,156.495 76.547,155.958 C 76.332,155.958 76.118,154.991 76.118,153.808 L 76.118,147.683 C 76.332,147.683 76.332,147.898 76.547,147.898 C 76.547,147.898 76.762,147.898 76.977,147.898 C 77.301,147.898 77.729,147.683 78.16,147.683 L 79.557,149.831 L 79.557,146.606 C 78.912,146.821 78.053,146.928 76.977,146.928 C 76.762,146.928 76.547,146.928 76.547,146.928 C 76.332,146.928 76.332,146.928 76.118,146.928 L 76.118,137.9 C 76.977,137.685 77.945,137.47 78.375,137.47 C 78.805,137.47 79.234,137.576 79.557,137.686 z " style="fill-rule:evenodd" id="path29"/>
<path d="M 97.399,156.709 L 97.506,157.678 C 99.978,157.678 102.235,156.494 104.171,154.559 C 105.997,152.625 107.073,149.83 107.073,146.713 C 107.073,143.813 105.997,141.233 104.171,139.082 C 102.235,137.146 100.194,135.965 97.721,135.965 L 97.399,135.965 L 97.506,136.934 C 99.118,136.934 100.73,137.686 101.59,139.082 C 102.987,140.803 103.632,143.596 103.632,147.143 C 103.632,150.475 102.987,152.948 101.805,154.559 C 100.73,155.957 99.117,156.709 97.506,156.709 L 97.399,156.709 z " style="fill-rule:evenodd" id="path31"/>
<path d="M 97.399,136.934 L 97.506,135.965 C 95.141,135.965 92.885,137.147 91.057,138.867 C 89.016,140.803 87.833,143.596 87.833,146.928 C 87.833,150.045 88.8,152.625 90.627,154.559 C 92.454,156.495 94.711,157.678 97.398,157.678 L 97.505,156.709 C 95.678,156.709 94.281,155.957 93.099,154.773 C 91.917,152.947 91.272,150.259 91.272,146.712 C 91.272,143.38 91.917,140.802 93.099,139.081 C 94.281,137.685 95.679,136.933 97.505,136.933 L 97.399,136.933 L 97.399,136.934 z " style="fill-rule:evenodd" id="path33"/>
<path d="M 120.293,135.965 L 120.293,142.951 L 119.863,142.951 C 119.647,141.662 119.432,140.48 119.004,139.834 C 118.465,138.867 117.821,138.115 116.853,137.686 C 116.209,137.147 115.027,136.934 114.166,136.934 C 113.199,136.934 112.339,137.147 111.802,137.901 C 111.156,138.653 110.727,139.297 110.727,140.266 C 110.727,141.018 110.942,141.662 111.373,141.985 C 111.803,142.63 113.2,143.813 115.564,145.317 C 117.391,146.284 118.681,147.143 119.433,147.682 C 119.864,148.112 120.618,148.864 120.83,149.616 C 121.26,150.261 121.475,151.227 121.475,151.981 C 121.475,153.377 120.83,154.774 119.648,155.958 C 118.465,156.925 117.176,157.679 115.027,157.679 C 114.597,157.679 114.167,157.464 113.63,157.464 C 113.2,157.464 112.555,157.14 111.803,156.925 C 110.943,156.495 109.976,156.28 109.76,156.28 C 109.76,156.28 109.545,156.495 109.33,156.495 C 109.33,156.71 109.116,157.14 109.116,157.679 L 108.685,157.679 L 108.685,150.798 L 109.116,150.798 C 109.33,152.196 109.545,153.593 109.975,154.132 C 110.512,154.991 111.157,155.528 112.124,155.958 C 112.984,156.495 113.951,156.71 115.026,156.71 C 116.209,156.71 117.39,156.495 117.821,155.743 C 118.465,154.991 119.004,154.132 119.004,153.378 C 119.004,152.626 118.681,152.196 118.465,151.659 C 118.25,151.227 117.821,150.475 117.391,150.261 C 116.853,150.046 115.779,149.294 114.166,148.327 C 112.554,147.143 111.156,146.499 110.512,145.962 C 109.759,145.317 109.116,144.566 108.9,143.814 C 108.363,143.382 108.147,142.416 108.147,141.664 C 108.147,140.051 108.9,138.869 109.759,137.687 C 110.942,136.718 112.554,135.966 114.166,135.966 C 115.026,135.966 116.424,136.503 117.605,137.148 C 118.035,137.148 118.464,137.472 118.68,137.472 C 119.003,137.472 119.217,137.148 119.432,137.148 C 119.432,137.148 119.647,136.718 119.863,135.966 L 120.293,135.966 L 120.293,135.965 z " style="fill-rule:evenodd" id="path35"/>
<path d="M 131.794,156.709 L 131.901,157.678 C 134.373,157.678 136.63,156.494 138.564,154.559 C 140.391,152.625 141.466,149.83 141.466,146.713 C 141.466,143.813 140.391,141.233 138.564,139.082 C 136.629,137.146 134.587,135.965 132.116,135.965 L 131.794,135.965 L 131.901,136.934 C 133.513,136.934 135.125,137.686 135.985,139.082 C 137.382,140.803 138.027,143.596 138.027,147.143 C 138.027,150.475 137.382,152.948 136.2,154.559 C 135.125,155.957 133.513,156.709 131.901,156.709 L 131.794,156.709 z " style="fill-rule:evenodd" id="path37"/>
<path d="M 131.794,136.934 L 131.901,135.965 C 129.538,135.965 127.279,137.147 125.452,138.867 C 123.409,140.803 122.227,143.596 122.227,146.928 C 122.227,150.045 123.194,152.625 125.023,154.559 C 126.849,156.495 129.106,157.678 131.794,157.678 L 131.901,156.709 C 130.073,156.709 128.675,155.957 127.494,154.773 C 126.311,152.947 125.667,150.259 125.667,146.712 C 125.667,143.38 126.312,140.802 127.494,139.081 C 128.676,137.685 130.073,136.933 131.901,136.933 L 131.794,136.933 L 131.794,136.934 z " style="fill-rule:evenodd" id="path39"/>
<path d="M 146.733,137.471 L 146.733,145.961 L 150.173,145.961 C 150.817,145.961 151.569,145.746 151.999,145.531 C 152.429,144.994 152.644,144.133 152.967,142.951 L 153.397,142.951 L 153.397,149.83 L 152.967,149.83 C 152.967,149.078 152.644,148.326 152.429,148.111 C 152.214,147.681 151.999,147.465 151.786,147.142 C 151.354,146.927 150.602,146.927 150.173,146.927 L 146.733,146.927 L 146.733,153.806 C 146.733,154.773 146.948,155.527 146.948,155.742 C 146.948,155.957 147.163,156.279 147.38,156.494 C 147.916,156.709 148.561,156.709 148.991,156.709 L 149.743,156.709 L 149.743,157.139 L 141.037,157.139 L 141.037,156.709 L 141.683,156.709 C 142.327,156.709 143.08,156.494 143.509,155.957 C 143.724,155.742 143.724,154.99 143.724,153.807 L 143.724,140.049 C 143.724,139.082 143.724,138.33 143.724,138.115 C 143.509,137.9 143.295,137.47 143.08,137.47 C 142.649,137.146 142.111,136.933 141.683,136.933 L 141.037,136.933 L 141.037,136.501 L 155.869,136.501 L 156.407,140.802 L 155.439,140.802 C 155.224,140.048 154.794,139.296 154.58,138.866 C 154.257,138.329 153.827,137.899 153.397,137.684 C 152.967,137.469 152.214,137.469 151.14,137.469 L 146.733,137.469 L 146.733,137.471 z " style="fill-rule:evenodd" id="path41"/>
<path d="M 174.786,136.717 L 175.217,141.233 L 174.464,141.233 C 174.464,140.266 174.25,139.512 174.034,139.297 C 173.819,138.867 173.389,138.33 172.852,138.115 C 172.421,137.9 171.777,137.685 170.809,137.685 L 168.122,137.685 L 168.122,154.021 C 168.122,155.205 168.122,156.171 168.337,156.494 C 168.767,156.709 169.411,156.924 170.164,156.924 L 171.023,156.924 L 171.023,157.354 L 162.317,157.354 L 162.317,156.924 L 163.069,156.924 C 163.715,156.924 164.359,156.709 164.897,156.172 C 164.897,155.957 165.112,155.205 165.112,154.022 L 165.112,137.686 L 162.855,137.686 C 161.887,137.686 161.243,137.686 160.919,137.901 C 160.49,138.116 160.06,138.546 159.63,138.868 C 159.415,139.513 159.093,140.266 159.093,141.233 L 158.447,141.233 L 158.877,136.717 L 174.786,136.717 L 174.786,136.717 z " style="fill-rule:evenodd" id="path43"/>
<path d="M 55.266,160.686 L 55.266,161.44 C 54.406,161.44 53.869,161.762 53.333,162.085 C 52.794,162.3 52.471,162.837 51.934,163.481 C 51.934,164.018 51.396,165.417 50.859,167.028 L 42.476,189.708 L 41.616,189.708 L 35.491,172.403 L 29.9,189.707 L 28.718,189.707 L 20.656,166.275 C 20.119,164.554 19.582,163.48 19.582,163.158 C 19.259,162.836 18.722,162.299 18.4,162.084 C 17.861,161.762 17.324,161.439 16.464,161.439 L 16.464,160.685 L 26.782,160.685 L 26.782,161.439 L 26.245,161.439 C 25.708,161.439 24.848,161.761 24.526,162.084 C 24.311,162.621 23.987,162.836 23.987,163.48 C 23.987,164.017 24.31,165.093 24.848,167.027 L 30.437,182.935 L 34.629,169.607 L 33.446,166.812 L 32.908,164.878 C 32.693,164.232 32.371,163.48 31.834,162.835 C 31.834,162.835 31.511,162.62 31.296,162.298 C 30.975,162.083 30.437,161.761 30.114,161.761 C 30.114,161.761 29.577,161.439 29.039,161.439 L 29.039,160.685 L 39.896,160.685 L 39.896,161.439 L 39.034,161.439 C 38.497,161.439 37.637,161.761 37.422,162.084 C 37.1,162.621 36.885,162.836 36.885,163.48 C 36.885,164.232 37.1,165.63 37.96,167.349 L 43.227,182.72 L 49.139,167.027 C 49.676,165.416 49.999,164.017 49.999,163.48 C 49.999,163.158 49.999,162.835 49.676,162.621 C 49.461,162.299 49.139,162.084 48.818,162.084 C 48.602,161.762 47.742,161.439 46.881,161.439 L 46.881,160.685 L 55.266,160.685 L 55.266,160.686 z " style="fill-rule:evenodd" id="path45"/>
<path d="M 62.254,188.523 L 62.254,189.168 L 51.934,189.168 L 51.934,188.523 L 52.794,188.523 C 53.548,188.523 54.406,188.308 54.943,187.771 C 55.265,187.449 55.265,186.375 55.265,184.976 L 55.265,170.681 C 55.265,169.285 55.265,168.425 54.943,168.208 C 54.943,167.886 54.728,167.671 54.405,167.349 C 53.868,167.027 53.332,166.812 52.793,166.812 L 51.933,166.812 L 51.933,166.275 L 62.253,166.275 L 62.253,166.812 L 61.391,166.812 C 60.316,166.812 59.779,167.027 59.134,167.671 C 58.92,168.208 58.92,169.069 58.92,170.681 L 58.92,184.976 C 58.92,186.052 58.92,187.126 58.92,187.449 C 58.92,187.772 59.457,187.986 59.779,188.308 C 60.316,188.523 60.855,188.523 61.391,188.523 L 62.254,188.523 z " style="fill-rule:evenodd" id="path47"/>
<path d="M 57.416,166.275 L 63.327,166.275 L 77.838,183.795 L 77.838,170.682 C 77.838,169.071 77.838,168.209 77.301,167.672 C 76.977,167.027 76.118,166.813 75.365,166.813 L 74.505,166.813 L 74.505,166.276 L 82.567,166.276 L 82.567,166.813 L 81.707,166.813 C 80.633,166.813 80.096,167.028 79.557,167.887 C 79.235,168.209 79.235,169.285 79.235,170.682 L 79.235,189.707 L 78.698,189.707 L 63.327,171.219 L 63.327,184.977 C 63.327,186.375 63.65,187.45 63.865,187.987 C 64.187,188.309 65.048,188.524 65.8,188.524 L 66.661,188.524 L 66.661,189.169 L 58.598,189.169 L 58.598,188.524 L 59.458,188.524 C 60.532,188.524 61.07,188.309 61.607,187.772 C 61.93,187.127 61.93,186.376 61.93,184.977 L 61.93,169.823 C 61.392,169.071 60.856,168.427 60.533,168.21 C 60.211,167.888 59.674,167.673 58.813,167.351 C 58.598,167.351 58.063,167.029 57.416,167.029 L 57.416,166.275 L 57.416,166.275 z " style="fill-rule:evenodd" id="path49"/>
<path d="M 95.25,187.449 L 95.25,189.062 C 98.367,188.63 100.946,187.449 102.453,185.515 C 104.387,183.579 105.461,180.785 105.461,177.667 C 105.461,175.194 104.924,173.261 103.849,171.218 C 102.668,169.607 101.054,168.208 99.334,167.671 C 98.367,167.241 96.97,166.812 95.251,166.597 L 95.251,168.103 C 96.755,168.533 98.047,169.285 99.12,170.466 C 100.732,172.079 101.593,174.659 101.593,177.667 C 101.593,180.784 100.733,183.579 99.12,185.19 C 98.046,186.268 96.754,187.02 95.25,187.449 z " style="fill-rule:evenodd" id="path51"/>
<path d="M 95.25,168.104 L 95.25,166.598 C 94.068,166.383 92.778,166.276 91.273,166.276 L 82.029,166.276 L 82.029,166.813 L 82.888,166.813 C 83.748,166.813 84.285,167.028 84.825,167.672 C 85.146,168.209 85.361,169.07 85.361,170.682 L 85.361,184.977 C 85.361,186.375 85.146,187.127 84.825,187.772 C 84.61,188.309 83.749,188.524 82.888,188.524 L 82.029,188.524 L 82.029,189.169 L 92.347,189.169 C 93.314,189.169 94.389,189.169 95.249,189.064 L 95.249,187.451 C 94.389,187.666 93.422,187.773 92.347,187.773 C 91.595,187.773 90.197,187.773 88.8,187.451 L 88.8,168.211 C 90.197,167.889 91.273,167.674 92.133,167.674 C 93.315,167.672 94.39,167.887 95.25,168.104 z " style="fill-rule:evenodd" id="path53"/>
<path d="M 117.391,188.309 L 117.391,189.707 C 120.402,189.707 123.088,188.309 125.344,186.053 C 127.602,184.117 128.676,181 128.676,177.668 C 128.676,174.336 127.602,171.541 125.344,169.285 C 123.409,167.027 120.617,165.953 117.391,165.953 L 117.391,167.135 C 119.54,167.135 121.154,167.994 122.551,169.608 C 123.947,171.219 124.807,174.337 124.807,177.993 C 124.807,181.645 124.27,184.333 122.551,185.731 C 121.153,187.449 119.54,188.309 117.391,188.309 z " style="fill-rule:evenodd" id="path55"/>
<path d="M 117.391,167.135 L 117.498,165.953 C 114.488,165.953 112.017,167.027 109.759,169.07 C 107.181,171.218 106.106,174.013 106.106,177.668 C 106.106,181.323 106.966,184.117 109.222,186.375 C 111.372,188.523 113.951,189.707 117.284,189.707 L 117.391,189.707 L 117.391,188.309 L 117.284,188.309 C 115.349,188.309 113.63,187.45 112.232,186.053 C 110.835,184.117 109.759,181.323 109.759,177.668 C 109.759,174.013 110.834,171.219 112.232,169.607 C 113.415,167.886 115.027,167.027 117.284,167.027 L 117.391,167.135 z " style="fill-rule:evenodd" id="path57"/>
<path d="M 157.805,166.275 L 157.483,166.812 C 156.945,166.812 156.623,166.812 156.086,167.027 C 155.763,167.349 155.226,167.672 155.226,168.425 C 155.011,168.747 154.366,169.607 154.152,171.218 L 147.165,189.706 L 146.305,189.706 L 141.576,175.194 L 137.061,189.706 L 135.987,189.706 L 129.324,170.466 C 128.678,169.07 128.464,168.208 128.14,168.208 C 128.14,167.671 127.603,167.349 127.281,167.026 C 127.066,166.811 126.206,166.811 125.669,166.811 L 125.669,166.274 L 134.59,166.274 L 134.59,166.811 L 134.053,166.811 C 133.516,166.811 132.87,167.026 132.656,167.026 C 132.334,167.348 132.334,167.885 132.334,168.208 C 132.334,168.747 132.656,169.606 132.871,171.003 L 137.386,184.116 L 140.718,173.261 L 139.858,171.003 L 139.321,169.284 C 138.998,168.747 138.783,168.208 138.463,167.886 C 138.463,167.671 138.246,167.349 137.924,167.349 C 137.924,167.027 137.387,167.027 137.064,166.812 C 136.849,166.812 136.527,166.812 136.312,166.812 L 136.312,166.275 L 145.449,166.275 L 145.449,166.812 L 144.588,166.812 C 144.052,166.812 143.514,167.027 143.192,167.027 C 142.978,167.349 142.978,167.886 142.978,168.209 C 142.978,168.748 143.192,169.822 143.514,171.219 L 148.029,183.795 L 152.758,171.004 C 152.973,169.822 153.295,168.748 153.295,168.209 L 153.295,167.672 C 152.973,167.35 152.758,167.027 152.435,167.027 C 152.22,166.812 151.361,166.812 150.823,166.812 L 150.823,166.275 L 157.805,166.275 L 157.805,166.275 z " style="fill-rule:evenodd" id="path59"/>
<path d="M 170.917,165.953 L 170.917,173.799 L 170.379,173.799 C 170.379,172.403 169.843,171.004 169.521,170.145 C 168.982,169.286 168.124,168.426 167.048,168.209 C 166.189,167.672 165.113,167.027 164.253,167.027 C 163.07,167.027 161.996,167.672 161.459,168.209 C 160.599,169.07 160.062,169.822 160.062,170.682 C 160.062,171.219 160.277,172.08 160.921,172.618 C 161.459,173.477 163.07,174.661 165.65,176.057 C 167.799,177.131 169.52,177.993 170.057,178.53 C 170.916,179.065 171.454,179.926 171.992,180.786 C 172.314,181.645 172.637,182.399 172.637,183.259 C 172.637,184.978 171.778,186.591 170.594,187.773 C 169.198,188.847 167.263,189.709 165.33,189.709 C 164.468,189.709 163.931,189.387 163.393,189.387 C 163.07,189.387 162.318,189.17 161.135,188.848 C 160.061,188.526 159.2,188.311 158.878,188.311 C 158.663,188.311 158.341,188.311 158.341,188.526 C 158.341,188.526 158.126,189.171 158.126,189.71 L 157.481,189.71 L 157.481,181.862 L 158.126,181.862 C 158.341,183.583 158.663,184.657 159.2,185.518 C 159.737,186.377 160.597,187.129 161.458,187.452 C 162.532,187.989 163.715,188.311 164.79,188.311 C 166.187,188.311 167.585,187.774 168.443,187.129 C 169.196,186.592 169.519,185.518 169.519,184.656 C 169.519,184.119 169.519,183.582 169.196,182.937 C 168.98,182.4 168.443,181.861 167.585,181.324 C 167.262,181.324 165.864,180.465 163.93,179.39 C 161.995,178.208 160.598,177.454 159.738,176.81 C 158.879,176.058 158.342,175.414 157.804,174.662 C 157.266,173.801 157.266,172.941 157.266,172.082 C 157.266,170.469 157.804,169.072 158.878,167.674 C 160.275,166.492 161.995,165.955 163.93,165.955 C 165.113,165.955 166.509,166.277 167.799,166.814 C 168.659,167.029 168.981,167.029 169.196,167.029 C 169.519,167.029 169.842,167.029 170.056,167.029 C 170.056,166.814 170.377,166.492 170.377,165.955 L 170.917,165.955 L 170.917,165.953 z " style="fill-rule:evenodd" id="path61"/>
<path d="M 173.067,158.215 L 173.067,158.645 C 174.25,158.645 175.324,157.569 175.324,156.387 C 175.324,155.205 174.25,154.237 173.067,154.237 L 173.067,154.669 C 174.034,154.669 174.894,155.421 174.894,156.388 C 174.894,157.355 174.034,158.215 173.067,158.215 z " style="fill-rule:evenodd" id="path63"/>
<path d="M 173.067,156.172 L 173.067,156.709 L 173.712,157.568 L 174.143,157.568 L 173.39,156.494 C 173.82,156.494 174.035,156.279 174.035,155.849 C 174.035,155.312 173.82,155.097 173.068,155.097 L 173.174,155.419 C 173.39,155.419 173.712,155.419 173.712,155.741 C 173.712,156.172 173.39,156.172 173.067,156.172 z " style="fill-rule:evenodd" id="path65"/>
<path d="M 173.067,154.668 L 173.067,154.236 L 173.067,154.131 C 171.884,154.131 170.702,155.098 170.702,156.387 C 170.702,157.569 171.885,158.645 173.067,158.645 L 173.067,158.215 C 172.099,158.215 171.239,157.354 171.239,156.387 C 171.239,155.313 172.099,154.559 173.067,154.559 L 173.067,154.668 z " style="fill-rule:evenodd" id="path67"/>
<path d="M 173.067,155.42 L 173.173,155.098 L 172.206,155.098 L 172.206,157.569 L 172.636,157.569 L 172.636,156.495 L 173.067,156.495 L 173.067,156.71 L 173.067,156.173 L 172.636,156.173 L 172.636,155.421 L 173.173,155.421 L 173.067,155.421 L 173.067,155.42 z " style="fill-rule:evenodd" id="path69"/>
<path d="M 174.25,187.557 L 173.712,187.557 L 173.712,189.922 L 174.034,189.922 L 174.034,188.094 L 174.786,189.922 L 175.217,189.922 L 175.862,188.094 L 175.862,189.922 L 176.292,189.922 L 176.292,187.557 L 175.647,187.557 L 175.002,189.385 L 174.25,187.557 z " style="fill-rule:evenodd" id="path71"/>
<path d="M 173.174,187.557 L 171.239,187.557 L 171.239,187.879 L 172.099,187.879 L 172.099,189.922 L 172.421,189.922 L 172.421,187.879 L 173.173,187.879 L 173.173,187.557 L 173.174,187.557 z " style="fill-rule:evenodd" id="path73"/>
<path d="M 101.806,10.426 L 101.806,115.973 C 124.377,102.862 148.346,104.151 173.39,116.295 L 173.39,11.608 C 148.561,-0.215 124.807,0.429 101.806,10.426 z " style="fill-rule:evenodd" id="path75"/>
<path d="M 86.329,17.842 L 86.329,31.17 L 99.656,24.183 L 99.656,11.393 L 86.329,17.842 z " style="fill-rule:evenodd" id="path77"/>
<path d="M 86.329,33.104 L 86.329,46.432 L 99.656,39.446 L 99.656,26.548 L 86.329,33.104 z " style="fill-rule:evenodd" id="path79"/>
<path d="M 86.329,48.152 L 86.329,61.48 L 99.656,54.6 L 99.656,41.703 L 86.329,48.152 z " style="fill-rule:evenodd" id="path81"/>
<path d="M 86.329,63.415 L 86.329,76.743 L 99.656,69.757 L 99.656,56.965 L 86.329,63.415 z " style="fill-rule:evenodd" id="path83"/>
<path d="M 86.329,78.462 L 86.329,91.682 L 99.656,84.803 L 99.656,71.906 L 86.329,78.462 z " style="fill-rule:evenodd" id="path85"/>
<path d="M 86.329,93.939 L 86.329,107.266 L 99.656,100.389 L 99.656,87.491 L 86.329,93.939 z " style="fill-rule:evenodd" id="path87"/>
<path d="M 86.329,109.201 L 86.329,122.529 L 99.656,115.543 L 99.656,102.752 L 86.329,109.201 z " style="fill-rule:evenodd" id="path89"/>
<path d="M 71.282,22.463 L 83.64,16.229 L 83.64,28.268 L 71.282,34.502 L 71.282,22.463 z " style="fill-rule:evenodd" id="path91"/>
<path d="M 71.282,37.833 L 83.641,31.6 L 83.641,43.638 L 71.283,49.872 L 71.283,37.833 L 71.282,37.833 z " style="fill:#fe5a1a;fill-rule:evenodd" id="path93"/>
<path d="M 71.282,52.451 L 83.64,46.217 L 83.64,58.255 L 71.282,64.489 L 71.282,52.451 z " style="fill:#fe5a1a;fill-rule:evenodd" id="path95"/>
<path d="M 71.282,67.714 L 83.64,61.481 L 83.64,73.519 L 71.282,79.86 L 71.282,67.714 z " style="fill-rule:evenodd" id="path97"/>
<path d="M 71.282,83.083 L 83.64,76.85 L 83.64,88.888 L 71.282,95.23 L 71.282,83.083 z " style="fill:#3875b4;fill-rule:evenodd" id="path99"/>
<path d="M 71.282,97.809 L 83.64,91.574 L 83.64,103.614 L 71.282,109.956 L 71.282,97.809 z " style="fill:#3875b4;fill-rule:evenodd" id="path101"/>
<path d="M 71.282,113.07 L 83.64,106.838 L 83.64,118.875 L 71.282,125.107 L 71.282,113.07 z " style="fill-rule:evenodd" id="path103"/>
<path d="M 57.955,21.926 L 68.487,16.982 L 68.487,27.515 L 57.955,32.567 L 57.955,21.926 z " style="fill-rule:evenodd" id="path105"/>
<path d="M 57.955,37.403 L 68.487,32.352 L 68.487,42.993 L 57.955,48.046 L 57.955,37.403 z " style="fill:#fe5a1a;fill-rule:evenodd" id="path107"/>
<path d="M 57.955,52.021 L 68.487,47.077 L 68.487,57.61 L 57.955,62.662 L 57.955,52.021 z " style="fill:#fe5a1a;fill-rule:evenodd" id="path109"/>
<path d="M 57.955,67.284 L 68.487,62.34 L 68.487,72.873 L 57.955,77.925 L 57.955,67.284 z " style="fill-rule:evenodd" id="path111"/>
<path d="M 57.955,82.762 L 68.487,77.709 L 68.487,88.351 L 57.955,93.402 L 57.955,82.762 z " style="fill:#3875b4;fill-rule:evenodd" id="path113"/>
<path d="M 57.955,97.379 L 68.487,92.327 L 68.487,102.969 L 57.955,107.912 L 57.955,97.379 z " style="fill:#3875b4;fill-rule:evenodd" id="path115"/>
<path d="M 57.955,112.533 L 68.487,107.59 L 68.487,118.123 L 57.955,123.174 L 57.955,112.533 z " style="fill-rule:evenodd" id="path117"/>
<path d="M 45.592,30.095 L 54.191,26.226 L 54.191,18.38 L 45.592,22.464 L 45.592,30.095 z " style="fill-rule:evenodd" id="path119"/>
<path d="M 45.592,45.464 L 54.191,41.595 L 54.191,33.75 L 45.592,37.834 L 45.592,45.464 z " style="fill:#fe5a1a;fill-rule:evenodd" id="path121"/>
<path d="M 45.592,60.083 L 54.191,56.213 L 54.191,48.258 L 45.592,52.45 L 45.592,60.083 z " style="fill:#fe5a1a;fill-rule:evenodd" id="path123"/>
<path d="M 45.592,75.345 L 54.191,71.474 L 54.191,63.628 L 45.592,67.713 L 45.592,75.345 z " style="fill-rule:evenodd" id="path125"/>
<path d="M 45.592,90.823 L 54.191,86.846 L 54.191,79 L 45.592,83.083 L 45.592,90.823 z " style="fill:#3875b4;fill-rule:evenodd" id="path127"/>
<path d="M 45.592,105.547 L 54.191,101.57 L 54.191,93.724 L 45.592,97.808 L 45.592,105.547 z " style="fill:#3875b4;fill-rule:evenodd" id="path129"/>
<path d="M 45.592,120.701 L 54.191,116.832 L 54.191,108.986 L 45.592,113.07 L 45.592,120.701 z " style="fill-rule:evenodd" id="path131"/>
<path d="M 33.984,17.412 L 40.217,13.651 L 40.217,20.207 L 33.984,23.753 L 33.984,17.412 z " style="fill-rule:evenodd" id="path133"/>
<path d="M 33.984,32.782 L 40.217,29.02 L 40.217,35.684 L 33.984,39.123 L 33.984,32.782 z " style="fill:#fe5a1a;fill-rule:evenodd" id="path135"/>
<path d="M 33.984,47.4 L 40.217,43.638 L 40.217,50.302 L 33.984,53.849 L 33.984,47.4 z " style="fill:#fe5a1a;fill-rule:evenodd" id="path137"/>
<path d="M 33.984,62.662 L 40.217,58.9 L 40.217,65.564 L 33.984,69.111 L 33.984,62.662 z " style="fill-rule:evenodd" id="path139"/>
<path d="M 33.984,78.138 L 40.217,74.378 L 40.217,80.935 L 33.984,84.482 L 33.984,78.138 z " style="fill:#3875b4;fill-rule:evenodd" id="path141"/>
<path d="M 33.984,92.757 L 40.217,88.995 L 40.217,95.659 L 33.984,99.205 L 33.984,92.757 z " style="fill:#3875b4;fill-rule:evenodd" id="path143"/>
<path d="M 33.984,108.02 L 40.217,104.258 L 40.217,110.922 L 33.984,114.361 L 33.984,108.02 z " style="fill-rule:evenodd" id="path145"/>
<path d="M 23.344,13.864 L 28.18,11.393 L 28.18,16.122 L 23.344,18.272 L 23.344,13.864 z " style="fill-rule:evenodd" id="path147"/>
<path d="M 23.344,29.127 L 28.18,26.762 L 28.18,31.491 L 23.344,33.64 L 23.344,29.127 z " style="fill:#fe5a1a;fill-rule:evenodd" id="path149"/>
<path d="M 23.344,43.745 L 28.18,41.488 L 28.18,46.217 L 23.344,48.259 L 23.344,43.745 z " style="fill:#fe5a1a;fill-rule:evenodd" id="path151"/>
<path d="M 23.344,59.008 L 28.18,56.643 L 28.18,61.371 L 23.344,63.522 L 23.344,59.008 z " style="fill-rule:evenodd" id="path153"/>
<path d="M 23.344,74.486 L 28.18,72.121 L 28.18,76.743 L 23.344,78.892 L 23.344,74.486 z " style="fill:#3875b4;fill-rule:evenodd" id="path155"/>
<path d="M 23.344,89.21 L 28.18,86.846 L 28.18,91.468 L 23.344,93.618 L 23.344,89.21 z " style="fill:#3875b4;fill-rule:evenodd" id="path157"/>
<path d="M 23.344,104.473 L 28.18,102 L 28.18,106.73 L 23.344,108.88 L 23.344,104.473 z " style="fill-rule:evenodd" id="path159"/>
<path d="M 101.698,25.15 C 111.156,20.959 118.895,18.701 125.667,18.272 L 125.667,51.592 C 117.605,52.237 109.652,54.709 101.698,58.363 L 101.698,25.15 L 101.698,25.15 z " style="fill:#fe5a1a;fill-rule:evenodd" id="path161"/>
<path d="M 135.018,16.767 L 135.018,50.839 L 144.477,50.839 C 148.668,50.839 155.547,52.988 158.665,54.171 L 158.665,20.529 C 150.817,17.197 142.866,16.015 135.018,16.767 z " style="fill:#66ba47;fill-rule:evenodd" id="path163"/>
<path d="M 135.018,60.62 L 135.018,93.402 C 144.154,92.972 151.141,94.37 158.664,96.841 L 158.664,63.737 C 150.817,60.62 142.866,59.653 135.018,60.62 z " style="fill:#ffcc00;fill-rule:evenodd" id="path165"/>
<path d="M 101.698,68.788 C 110.511,64.489 118.465,62.555 125.667,62.017 L 125.667,93.83 C 117.176,95.336 109.007,97.593 101.698,101.033 L 101.698,68.788 L 101.698,68.788 z " style="fill:#3875b4;fill-rule:evenodd" id="path167"/>
				</g>
			</g>
		</g>
	</g>
</svg>