<?xml version="1.0" encoding="iso-8859-1"?>
<!-- Generator: Adobe Illustrator 19.0.0, SVG Export Plug-In . SVG Version: 6.00 Build 0)  -->
<svg version="1.1" id="Layer_1" xmlns="http://www.w3.org/2000/svg" xmlns:xlink="http://www.w3.org/1999/xlink" x="0px" y="0px"
	 viewBox="0 0 512 512" style="enable-background:new 0 0 512 512;" xml:space="preserve">
<path style="fill:#CCB88B;" d="M48.974,424.422v74.221c0,7.376,5.98,13.357,13.357,13.357H449.67c7.376,0,13.357-5.98,13.357-13.357
	v-74.221L48.974,424.422L48.974,424.422z"/>
<path style="fill:#AA9468;" d="M406.261,471.55H105.739c-7.377,0-13.357,5.98-13.357,13.357V512h327.235v-27.094
	C419.617,477.53,413.638,471.55,406.261,471.55z"/>
<path style="opacity:0.15;fill:#231F20;enable-background:new    ;" d="M66.783,498.643v-74.221H48.974v74.221
	c0,7.376,5.98,13.357,13.357,13.357h17.809C72.763,512,66.783,506.02,66.783,498.643z"/>
<path style="fill:#E8DBB8;" d="M439.123,0H27.362C12.251,0,0,12.251,0,27.361v51.76v252.823v70.682
	c0,15.112,12.251,27.362,27.362,27.362h457.276c15.111,0,27.362-12.25,27.362-27.362v-70.682V79.121v-51.76
	C512,12.251,499.749,0,484.638,0h-18.802"/>
<path style="opacity:0.15;fill:#231F20;enable-background:new    ;" d="M17.809,402.626v-70.682V79.121v-51.76
	C17.809,12.251,30.06,0,45.171,0H27.362C12.251,0,0,12.251,0,27.361v51.76v252.823v70.682c0,15.112,12.251,27.362,27.362,27.362
	h17.809C30.06,429.988,17.809,417.739,17.809,402.626z"/>
<path style="fill:#53CAF9;" d="M464.103,33.486h-30.558H78.454H47.896c-7.377,0-13.357,5.979-13.357,13.357v6.678v243.743v6.678
	c0,7.377,5.979,13.357,13.357,13.357h30.557H91.64h26.342h315.563h30.557c7.376,0,13.357-5.979,13.357-13.357v-6.678V53.521v-6.678
	C477.46,39.465,471.48,33.486,464.103,33.486z"/>
<circle style="fill:#F74848;" cx="82.477" cy="373.27" r="26.936"/>
<g>
	<path style="fill:#CCB88B;" d="M477.46,355.792h-82.857c-4.61,0-8.348-3.738-8.348-8.348c0-4.611,3.738-8.348,8.348-8.348h82.857
		c4.611,0,8.348,3.736,8.348,8.348C485.808,352.056,482.07,355.792,477.46,355.792z"/>
	<path style="fill:#CCB88B;" d="M477.46,382.824h-82.857c-4.61,0-8.348-3.736-8.348-8.348c0-4.611,3.738-8.348,8.348-8.348h82.857
		c4.611,0,8.348,3.736,8.348,8.348C485.808,379.087,482.07,382.824,477.46,382.824z"/>
	<path style="fill:#CCB88B;" d="M477.46,409.856h-28.875c-4.61,0-8.348-3.736-8.348-8.348c0-4.611,3.738-8.348,8.348-8.348h28.875
		c4.611,0,8.348,3.736,8.348,8.348S482.07,409.856,477.46,409.856z"/>
</g>
<path style="fill:#F5F5F5;" d="M464.103,33.486h-30.558H78.454H47.896c-7.377,0-13.357,5.979-13.357,13.357v6.678V75.32h442.92
	V53.521v-6.678C477.46,39.465,471.48,33.486,464.103,33.486z"/>
<path style="fill:#F74848;" d="M82.474,33.486h-4.019H47.896c-7.377,0-13.357,5.979-13.357,13.357v6.678V75.32h47.934
	C82.474,75.32,82.474,33.486,82.474,33.486z"/>
<g>
	<path style="fill:#AAE6F9;" d="M426.88,166.102H76.271c-4.61,0-8.348-3.736-8.348-8.348c0-4.611,3.738-8.348,8.348-8.348H426.88
		c4.61,0,8.348,3.736,8.348,8.348C435.228,162.365,431.49,166.102,426.88,166.102z"/>
	<path style="fill:#AAE6F9;" d="M426.88,127.702H76.271c-4.61,0-8.348-3.736-8.348-8.348s3.738-8.348,8.348-8.348H426.88
		c4.61,0,8.348,3.736,8.348,8.348S431.49,127.702,426.88,127.702z"/>
	<path style="fill:#AAE6F9;" d="M426.88,281.301H76.271c-4.61,0-8.348-3.736-8.348-8.348c0-4.611,3.738-8.348,8.348-8.348H426.88
		c4.61,0,8.348,3.736,8.348,8.348C435.228,277.563,431.49,281.301,426.88,281.301z"/>
	<path style="fill:#AAE6F9;" d="M426.88,204.501H76.271c-4.61,0-8.348-3.736-8.348-8.348s3.738-8.348,8.348-8.348H426.88
		c4.61,0,8.348,3.736,8.348,8.348C435.228,200.763,431.49,204.501,426.88,204.501z"/>
	<path style="fill:#AAE6F9;" d="M426.88,242.901H76.271c-4.61,0-8.348-3.736-8.348-8.348s3.738-8.348,8.348-8.348H426.88
		c4.61,0,8.348,3.736,8.348,8.348C435.228,239.163,431.49,242.901,426.88,242.901z"/>
</g>
<g>
	<path style="opacity:0.15;fill:#231F20;enable-background:new    ;" d="M123.548,471.55h-17.809
		c-7.377,0-13.357,5.98-13.357,13.357V512h17.809v-27.094C110.191,477.53,116.171,471.55,123.548,471.55z"/>
	<path style="opacity:0.15;fill:#231F20;enable-background:new    ;" d="M52.349,303.942v-6.678V53.521v-6.678
		c0-7.377,5.979-13.357,13.357-13.357H47.896c-7.377,0-13.357,5.979-13.357,13.357v6.678v243.743v6.678
		c0,7.377,5.979,13.357,13.357,13.357h17.809C58.328,317.299,52.349,311.319,52.349,303.942z"/>
	<path style="opacity:0.1;fill:#231F20;enable-background:new    ;" d="M73.343,373.269c0-11.757,7.534-21.748,18.035-25.425
		c-2.787-0.976-5.782-1.513-8.903-1.513c-14.879,0-26.94,12.061-26.94,26.938c0,14.88,12.061,26.94,26.94,26.94
		c3.121,0,6.116-0.536,8.903-1.513C80.876,395.019,73.343,385.028,73.343,373.269z"/>
</g>
<g>
</g>
<g>
</g>
<g>
</g>
<g>
</g>
<g>
</g>
<g>
</g>
<g>
</g>
<g>
</g>
<g>
</g>
<g>
</g>
<g>
</g>
<g>
</g>
<g>
</g>
<g>
</g>
<g>
</g>
</svg>
