<?xml version="1.0" encoding="iso-8859-1"?>
<!-- Generator: Adobe Illustrator 19.0.0, SVG Export Plug-In . SVG Version: 6.00 Build 0)  -->
<svg version="1.1" id="Layer_1" xmlns="http://www.w3.org/2000/svg" xmlns:xlink="http://www.w3.org/1999/xlink" x="0px" y="0px"
	 viewBox="0 0 490 490" style="enable-background:new 0 0 490 490;" xml:space="preserve">
<g>
	<g id="XMLID_42_">
		<g>
			<polygon style="fill:#B3B3B3;" points="370,120 315,120 315,65 			"/>
			<polygon style="fill:#FFFFFF;" points="370,120 370,275 120,275 120,65 315,65 315,120 			"/>
			<polygon style="fill:#E6E6E6;" points="480,275 480,350 310,350 180,350 10,350 10,275 120,275 370,275 			"/>
			<polygon style="fill:#31C0D8;" points="480,10 480,275 370,275 370,120 315,65 120,65 120,275 10,275 10,10 			"/>
			<polygon style="fill:#F2F2F2;" points="340,440 340,480 150,480 150,440 180,440 310,440 			"/>
			<rect x="180" y="350" style="fill:#B3B3B3;" width="130" height="90"/>
		</g>
		<g>
			<path d="M480,0H10C4.477,0,0,4.477,0,10v340c0,5.523,4.477,10,10,10h160v70h-20c-5.523,0-10,4.477-10,10v40
				c0,5.523,4.477,10,10,10h190c5.523,0,10-4.477,10-10v-40c0-5.523-4.477-10-10-10h-20v-70h160c5.523,0,10-4.477,10-10V10
				C490,4.477,485.523,0,480,0z M470,20v245h-90V120c0-2.652-1.054-5.196-2.929-7.071l-55-55C320.196,56.054,317.652,55,315,55H120
				c-5.523,0-10,4.477-10,10v200H20V20H470z M325,89.142L345.858,110H325V89.142z M315,130h45v135H130V75h175v45
				C305,125.523,309.477,130,315,130z M330,470H160v-20h170V470z M190,430v-70h110v70H190z M310,340H180H20v-55h100h250h100v55H310z
				"/>
			<rect x="150" y="95" width="50" height="20"/>
			<rect x="150" y="135" width="90" height="20"/>
			<rect x="150" y="175" width="190" height="20"/>
			<rect x="150" y="215" width="190" height="20"/>
		</g>
	</g>
</g>
<g>
</g>
<g>
</g>
<g>
</g>
<g>
</g>
<g>
</g>
<g>
</g>
<g>
</g>
<g>
</g>
<g>
</g>
<g>
</g>
<g>
</g>
<g>
</g>
<g>
</g>
<g>
</g>
<g>
</g>
</svg>
