<?xml version="1.0" encoding="iso-8859-1"?>
<!-- Generator: Adobe Illustrator 19.0.0, SVG Export Plug-In . SVG Version: 6.00 Build 0)  -->
<svg version="1.1" id="Layer_1" xmlns="http://www.w3.org/2000/svg" xmlns:xlink="http://www.w3.org/1999/xlink" x="0px" y="0px"
	 viewBox="0 0 512 512" style="enable-background:new 0 0 512 512;" xml:space="preserve">
<path style="fill:#547475;" d="M382.68,195.684H32.03c-13.227,0-23.945,10.722-23.945,23.945v221.815
	c0,13.224,10.718,23.945,23.945,23.945H479.97c13.224,0,23.945-10.722,23.945-23.945V219.63c0-13.224-10.722-23.945-23.945-23.945
	h-71.421"/>
<g style="opacity:0.2;">
	<path style="fill:#231F20;" d="M33.463,441.444V219.63c0-13.224,10.718-23.945,23.945-23.945H32.03
		c-13.227,0-23.945,10.722-23.945,23.945v221.815c0,13.224,10.718,23.945,23.945,23.945h25.379
		C44.181,465.39,33.463,454.668,33.463,441.444z"/>
</g>
<g>
	<circle style="fill:#53CAF9;" cx="378.88" cy="366.549" r="20.118"/>
	<circle style="fill:#53CAF9;" cx="420.454" cy="294.524" r="20.117"/>
</g>
<polygon style="fill:#F74848;" points="137.997,316.314 112.554,316.314 112.554,290.87 84.105,290.87 84.105,316.314 
	58.661,316.314 58.661,344.762 84.105,344.762 84.105,370.206 112.554,370.206 112.554,344.762 137.997,344.762 "/>
<rect x="211.903" y="195.681" style="fill:#8AACAD;" width="88.193" height="27.387"/>
<g style="opacity:0.2;">
	<rect x="211.903" y="195.681" style="fill:#231F20;" width="25.655" height="27.387"/>
</g>
<g>
	<path style="fill:#231F20;" d="M203.817,428.892v0.023c0,4.466,3.618,8.072,8.084,8.072c4.466,0,8.084-3.63,8.084-8.096
		c0-4.466-3.618-8.084-8.084-8.084C207.435,420.807,203.817,424.428,203.817,428.892z"/>
	<path style="fill:#231F20;" d="M300.099,420.808c-4.466,0-8.084,3.618-8.084,8.084v0.023c0,4.466,3.618,8.072,8.084,8.072
		c4.466,0,8.084-3.63,8.084-8.096C308.183,424.428,304.565,420.808,300.099,420.808z"/>
	<path style="fill:#231F20;" d="M262.615,428.892v0.023c0,4.466,3.618,8.072,8.084,8.072c4.466,0,8.084-3.63,8.084-8.096
		c0-4.466-3.618-8.084-8.084-8.084C266.234,420.807,262.615,424.428,262.615,428.892z"/>
	<path style="fill:#231F20;" d="M233.214,428.892v0.023c0,4.466,3.618,8.072,8.084,8.072c4.466,0,8.084-3.63,8.084-8.096
		c0-4.466-3.618-8.084-8.084-8.084C236.833,420.807,233.214,424.428,233.214,428.892z"/>
	<path style="fill:#231F20;" d="M392.976,342.124c-4.286-2.473-9.155-3.78-14.081-3.78c-10.054,0-19.419,5.405-24.441,14.103
		c-7.776,13.466-3.146,30.747,10.321,38.524c4.286,2.474,9.155,3.782,14.082,3.782c0.001,0,0.001,0,0.002,0
		c10.052,0,19.418-5.406,24.441-14.106C411.073,367.183,406.442,349.901,392.976,342.124z M389.298,372.565
		c-2.144,3.713-6.144,6.021-10.44,6.021c-2.093,0-4.168-0.559-5.997-1.616c-5.746-3.318-7.722-10.692-4.404-16.437
		c2.144-3.713,6.144-6.02,10.439-6.02c2.093,0,4.167,0.558,5.996,1.615C390.638,359.446,392.613,366.819,389.298,372.565z"/>
	<path style="fill:#231F20;" d="M444.881,308.627c7.776-13.467,3.144-30.75-10.322-38.525c-4.286-2.474-9.155-3.782-14.082-3.782
		c-10.054,0-19.419,5.406-24.44,14.104c-7.776,13.466-3.146,30.747,10.322,38.525c4.286,2.473,9.153,3.78,14.081,3.78
		C430.493,322.729,439.859,317.326,444.881,308.627z M410.04,288.508c2.143-3.713,6.142-6.02,10.437-6.02
		c2.092,0,4.166,0.558,5.996,1.616c5.746,3.318,7.723,10.693,4.405,16.439c-2.143,3.711-6.143,6.018-10.439,6.018
		c-2.093,0-4.168-0.559-5.996-1.615C408.697,301.628,406.721,294.254,410.04,288.508z"/>
	<path style="fill:#231F20;" d="M479.97,187.6h-71.421c-4.466,0-8.084,3.618-8.084,8.084s3.618,8.084,8.084,8.084h71.421
		c8.745,0,15.861,7.115,15.861,15.861v221.815c0,8.746-7.116,15.861-15.861,15.861H32.03c-8.745,0-15.861-7.115-15.861-15.861
		V219.63c0-8.746,7.116-15.861,15.861-15.861h171.787v19.303c0,4.466,3.618,8.084,8.084,8.084h88.198
		c4.466,0,8.084-3.618,8.084-8.084v-19.303h74.497c4.466,0,8.084-3.618,8.084-8.084s-3.618-8.084-8.084-8.084h-82.581h-37.166
		v-19.303c0-17.908,14.57-32.478,32.478-32.478h22.918h17.046h15.177c26.823,0,48.646-21.823,48.646-48.646
		s-21.823-48.646-48.646-48.646h-15.177h-17.046h-65.544c-4.466,0-8.084,3.618-8.084,8.084s3.618,8.084,8.084,8.084h65.544h17.046
		h15.177c17.908,0,32.478,14.57,32.478,32.478s-14.57,32.478-32.478,32.478h-15.177h-17.046h-22.918
		c-26.823,0-48.646,21.823-48.646,48.646V187.6h-34.863H32.03C14.368,187.6,0,201.968,0,219.63v221.815
		c0,17.661,14.368,32.03,32.03,32.03H479.97c17.661,0,32.03-14.368,32.03-32.03V219.63C512,201.968,497.632,187.6,479.97,187.6z
		 M292.015,203.768v11.219h-72.029v-11.219H292.015z"/>
	<path style="fill:#231F20;" d="M84.105,378.29h28.449c4.466,0,8.084-3.618,8.084-8.084v-17.36h17.359
		c4.466,0,8.084-3.618,8.084-8.084v-28.449c0-4.466-3.618-8.084-8.084-8.084h-17.359V290.87c0-4.466-3.618-8.084-8.084-8.084H84.105
		c-4.466,0-8.084,3.618-8.084,8.084v17.361H58.661c-4.466,0-8.084,3.618-8.084,8.084v28.449c0,4.466,3.618,8.084,8.084,8.084h17.359
		v17.359C76.021,374.672,79.64,378.29,84.105,378.29z M66.745,336.678v-12.28h17.359c4.466,0,8.084-3.618,8.084-8.084v-17.359h12.28
		v17.361c0,4.466,3.618,8.084,8.084,8.084h17.359v12.28h-17.359c-4.466,0-8.084,3.618-8.084,8.084v17.359h-12.28v-17.359
		c0-4.466-3.618-8.084-8.084-8.084H66.745V336.678z"/>
	<path style="fill:#231F20;" d="M300.099,256.811h-88.198c-4.466,0-8.084,3.618-8.084,8.084s3.618,8.084,8.084,8.084h88.198
		c4.466,0,8.084-3.618,8.084-8.084S304.565,256.811,300.099,256.811z"/>
	<path style="fill:#231F20;" d="M300.099,295.009h-88.198c-4.466,0-8.084,3.618-8.084,8.084c0,4.466,3.618,8.084,8.084,8.084h88.198
		c4.466,0,8.084-3.618,8.084-8.084C308.183,298.628,304.565,295.009,300.099,295.009z"/>
	<path style="fill:#231F20;" d="M300.099,333.206h-88.198c-4.466,0-8.084,3.618-8.084,8.084s3.618,8.084,8.084,8.084h88.198
		c4.466,0,8.084-3.618,8.084-8.084S304.565,333.206,300.099,333.206z"/>
	<path style="fill:#231F20;" d="M300.099,371.403h-88.198c-4.466,0-8.084,3.618-8.084,8.084c0,4.466,3.618,8.084,8.084,8.084h88.198
		c4.466,0,8.084-3.618,8.084-8.084C308.183,375.021,304.565,371.403,300.099,371.403z"/>
</g>
<g>
</g>
<g>
</g>
<g>
</g>
<g>
</g>
<g>
</g>
<g>
</g>
<g>
</g>
<g>
</g>
<g>
</g>
<g>
</g>
<g>
</g>
<g>
</g>
<g>
</g>
<g>
</g>
<g>
</g>
</svg>
