<?xml version="1.0" encoding="iso-8859-1"?>
<!-- Generator: Adobe Illustrator 19.0.0, SVG Export Plug-In . SVG Version: 6.00 Build 0)  -->
<svg version="1.1" id="Layer_1" xmlns="http://www.w3.org/2000/svg" xmlns:xlink="http://www.w3.org/1999/xlink" x="0px" y="0px"
	 viewBox="0 0 512 512" style="enable-background:new 0 0 512 512;" xml:space="preserve">
<path style="fill:#547475;" d="M454.53,181.745v-65.636c0-2.539-0.594-4.934-1.623-7.08c-11.627,20.443-33.593,34.242-58.793,34.242
	c-28.874,0-53.506-18.108-63.2-43.58H66.691c-9.068,0-16.417,7.351-16.417,16.417v371.424c0,9.066,7.35,16.417,16.417,16.417
	h371.424c9.066,0,16.415-7.352,16.415-16.417V206.656"/>
<g style="opacity:0.2;">
	<path style="fill:#231F20;" d="M75.979,487.533V116.109c0-9.068,7.35-16.417,16.417-16.417H66.691
		c-9.068,0-16.417,7.351-16.417,16.417v371.424c0,9.066,7.35,16.417,16.417,16.417h25.705
		C83.328,503.951,75.979,496.599,75.979,487.533z"/>
</g>
<path style="fill:#8AACAD;" d="M336.96,334.491c3.932-10.14,6.09-21.158,6.09-32.67c0-23.44-8.942-44.83-23.596-60.938
	l19.996-31.911c24.783,23.248,40.293,56.269,40.293,92.849c0,70.217-57.123,127.34-127.338,127.34
	c-70.218,0-127.34-57.123-127.34-127.34c0-70.216,57.123-127.34,127.34-127.34c16.072,0,31.453,3,45.623,8.458l-20.014,31.941
	c-8.127-2.398-16.717-3.708-25.609-3.708c-49.985,0-90.649,40.664-90.649,90.648s40.664,90.649,90.649,90.649
	c28.606,0,54.163-13.321,70.79-34.087l1.585-1.904"/>
<circle style="fill:#F74848;" cx="394.114" cy="75.663" r="67.612"/>
<g style="opacity:0.2;">
	<path style="fill:#231F20;" d="M352.302,75.66c0-32.927,23.545-60.344,54.713-66.367c-4.178-0.807-8.487-1.244-12.9-1.244
		c-37.341,0-67.612,30.271-67.612,67.611s30.271,67.612,67.612,67.612c4.412,0,8.722-0.437,12.9-1.244
		C375.846,136.004,352.302,108.588,352.302,75.66z"/>
</g>
<path style="fill:#DBDDDD;" d="M339.916,116.087L231.673,288.834c-7.174,11.446-3.708,26.542,7.741,33.716
	c4.035,2.53,8.527,3.736,12.965,3.736c8.144,0,16.107-4.065,20.75-11.477l108.246-172.752
	C364.489,138.835,349.824,129.348,339.916,116.087z"/>
<g style="opacity:0.2;">
	<path style="fill:#231F20;" d="M257.431,296.347l101.947-162.701c-7.576-4.542-14.196-10.511-19.463-17.56L231.673,288.834
		c-7.174,11.446-3.708,26.542,7.741,33.716c4.035,2.53,8.527,3.736,12.965,3.736c2.433,0,4.847-0.371,7.165-1.078
		C252.795,317.297,251.617,305.625,257.431,296.347z"/>
</g>
<path style="fill:#53CAF9;" d="M145.966,447.956c0-8.303-6.732-15.034-15.036-15.034h-19.809c-8.303,0-15.036,6.73-15.036,15.034
	c0,8.303,6.732,15.035,15.036,15.035h19.809C139.232,462.99,145.966,456.258,145.966,447.956z"/>
<g>
	<path style="fill:#231F20;" d="M469.776,75.66c0-41.719-33.941-75.66-75.661-75.66s-75.661,33.941-75.661,75.66
		c0,5.483,0.601,10.827,1.714,15.983H66.691c-13.491,0-24.467,10.976-24.467,24.467v371.424C42.224,501.024,53.2,512,66.691,512
		h371.424c13.49,0,24.464-10.976,24.464-24.467V206.656c0-4.445-3.603-8.049-8.049-8.049c-4.445,0-8.049,3.604-8.049,8.049v280.876
		c0,4.614-3.753,8.368-8.366,8.368H66.691c-4.614,0-8.368-3.754-8.368-8.368V116.109c0-4.614,3.754-8.368,8.368-8.368h258.903
		c0.074,0.157,0.155,0.309,0.229,0.465c0.106,0.221,0.217,0.44,0.325,0.66c0.395,0.806,0.804,1.602,1.226,2.39
		c0.131,0.245,0.261,0.49,0.395,0.734c0.504,0.918,1.023,1.825,1.564,2.716c0.04,0.067,0.077,0.134,0.118,0.2
		c0.279,0.456,0.571,0.903,0.859,1.352l-35.671,56.93c-13.603-4.483-27.779-6.757-42.234-6.757
		c-74.654,0-135.389,60.735-135.389,135.389s60.736,135.389,135.389,135.389S387.79,376.474,387.79,301.82
		c0-34.984-13.809-68.888-38.096-94.042l35.7-56.975c0.692,0.079,1.388,0.149,2.085,0.21c0.676,0.06,1.353,0.113,2.034,0.156
		c0.406,0.025,0.811,0.049,1.219,0.068c1.124,0.052,2.251,0.086,3.382,0.086c1.256,0,2.507-0.033,3.753-0.096
		c0.852-0.042,1.695-0.117,2.538-0.187c0.371-0.031,0.746-0.048,1.116-0.085c1.152-0.113,2.295-0.258,3.431-0.421
		c0.048-0.008,0.098-0.012,0.145-0.018c9.715-1.42,18.829-4.699,26.987-9.452c0.033-0.019,0.068-0.039,0.101-0.058
		c0.925-0.541,1.836-1.102,2.737-1.681c0.16-0.102,0.32-0.204,0.479-0.307c0.771-0.503,1.529-1.023,2.28-1.553
		c0.287-0.202,0.572-0.404,0.855-0.609c0.618-0.45,1.228-0.911,1.831-1.379c0.402-0.311,0.803-0.624,1.199-0.942
		c0.479-0.386,0.95-0.78,1.419-1.177c0.499-0.422,0.994-0.849,1.482-1.285c0.361-0.322,0.716-0.648,1.07-0.978
		c0.312-0.29,0.635-0.567,0.943-0.862v51.514c0,4.445,3.604,8.049,8.049,8.049c4.446,0,8.049-3.604,8.049-8.049v-65.636
		c0-2.212-0.301-4.38-0.886-6.487C466.851,99.401,469.776,87.869,469.776,75.66z M371.691,301.82
		c0,65.777-53.513,119.29-119.288,119.29c-65.777,0-119.29-53.514-119.29-119.29s53.514-119.29,119.29-119.29
		c11.394,0,22.587,1.599,33.396,4.762L274.328,205.6c-7.198-1.645-14.549-2.477-21.925-2.477c-54.423,0-98.698,44.275-98.698,98.697
		c0,54.423,44.275,98.698,98.698,98.698c30.074,0,58.144-13.5,77.024-37.045l1.537-1.848c2.843-3.417,2.379-8.491-1.039-11.336
		c-3.416-2.845-8.493-2.382-11.336,1.039l-1.585,1.904c-0.032,0.039-0.065,0.077-0.097,0.117
		c-15.809,19.743-39.321,31.068-64.506,31.068c-45.546,0-82.6-37.054-82.6-82.6c0-45.545,37.054-82.599,82.6-82.599
		c4.275,0,8.538,0.346,12.759,1.009l-40.308,64.33c-4.611,7.357-6.08,16.072-4.136,24.535c1.944,8.465,7.066,15.665,14.422,20.275
		c5.182,3.248,11.143,4.966,17.242,4.966c11.282,0,21.588-5.702,27.57-15.253l40.293-64.304
		c9.569,13.759,14.757,30.11,14.757,47.041c0,10.26-1.865,20.273-5.544,29.76c-1.608,4.145,0.45,8.808,4.593,10.415
		c4.147,1.609,8.809-0.45,10.415-4.593c4.402-11.351,6.635-23.321,6.635-35.581c0-22.52-7.661-44.191-21.688-61.67l11.442-18.261
		C360.554,243.722,371.691,272.34,371.691,301.82z M266.309,310.536c-3.021,4.822-8.229,7.702-13.93,7.702
		c-3.068,0-6.073-0.867-8.692-2.508c-3.714-2.328-6.301-5.963-7.282-10.235s-0.239-8.671,2.089-12.385l102.492-163.572
		c7.385,7.293,16.17,12.937,25.815,16.663c0.534,0.207,1.065,0.422,1.604,0.618c0.132,0.047,0.261,0.105,0.394,0.151
		L266.309,310.536z M445.081,106.451c-0.018,0.03-0.035,0.061-0.055,0.092c-0.483,0.793-0.984,1.573-1.503,2.342
		c-0.032,0.048-0.065,0.096-0.098,0.143c-0.511,0.752-1.037,1.493-1.58,2.221c-0.01,0.013-0.018,0.026-0.028,0.038
		c-1.114,1.488-2.298,2.92-3.543,4.296c-0.053,0.058-0.105,0.117-0.158,0.175c-0.618,0.678-1.25,1.343-1.899,1.992
		c-0.013,0.013-0.026,0.025-0.038,0.036c-0.577,0.577-1.172,1.138-1.773,1.69c-0.174,0.16-0.348,0.32-0.524,0.477
		c-0.521,0.468-1.05,0.925-1.586,1.375c-0.299,0.25-0.602,0.494-0.906,0.738c-0.38,0.306-0.762,0.607-1.149,0.904
		c-0.368,0.28-0.738,0.558-1.112,0.83c-0.205,0.149-0.414,0.295-0.621,0.442c-6.199,4.388-13.206,7.586-20.647,9.362
		c-0.029,0.006-0.059,0.014-0.088,0.02c-1.071,0.254-2.153,0.473-3.241,0.668c-0.231,0.041-0.46,0.086-0.692,0.123
		c-0.465,0.077-0.93,0.146-1.398,0.213c-0.49,0.069-0.984,0.132-1.479,0.189c-0.383,0.045-0.766,0.09-1.152,0.128
		c-0.747,0.071-1.497,0.129-2.252,0.172c-0.259,0.015-0.518,0.028-0.778,0.04c-0.885,0.04-1.774,0.068-2.668,0.068
		c-0.904,0-1.801-0.028-2.695-0.069c-0.354-0.016-0.707-0.04-1.06-0.062c-0.5-0.031-0.998-0.071-1.494-0.114
		c-0.48-0.043-0.958-0.086-1.435-0.141c-0.217-0.025-0.431-0.056-0.647-0.083c-15.514-1.953-29.631-10.013-39.265-22.059
		c-0.126-0.158-0.251-0.318-0.375-0.477c-0.352-0.45-0.702-0.904-1.041-1.364c-0.258-0.351-0.507-0.707-0.758-1.064
		c-0.295-0.42-0.588-0.84-0.874-1.269c-0.39-0.587-0.773-1.178-1.142-1.779c-0.14-0.228-0.274-0.458-0.41-0.688
		c-0.329-0.554-0.653-1.112-0.965-1.676c-0.122-0.221-0.244-0.443-0.364-0.666c-0.338-0.63-0.664-1.266-0.979-1.909
		c-0.076-0.157-0.157-0.31-0.232-0.468c-0.392-0.817-0.767-1.642-1.123-2.479c-0.033-0.078-0.062-0.158-0.095-0.236
		c-2.964-7.069-4.607-14.825-4.607-22.959c-0.003-32.843,26.716-59.563,59.559-59.563s59.563,26.719,59.563,59.561
		C453.677,86.92,450.534,97.461,445.081,106.451z"/>
	<path style="fill:#231F20;" d="M111.121,424.872c-12.729,0-23.085,10.355-23.085,23.083c0,12.729,10.356,23.084,23.085,23.084
		h19.809c12.729,0,23.085-10.355,23.085-23.084c0-12.728-10.356-23.083-23.085-23.083H111.121z M137.916,447.956
		c0,3.852-3.134,6.986-6.987,6.986h-19.809c-3.853,0-6.987-3.134-6.987-6.986s3.134-6.985,6.987-6.985h19.809
		C134.783,440.971,137.916,444.104,137.916,447.956z"/>
	<path style="fill:#231F20;" d="M371.155,439.401c-4.446,0-8.049,3.604-8.049,8.049c0,4.446,3.603,8.049,8.049,8.049h42.101
		c4.446,0,8.049-3.603,8.049-8.049c0-4.445-3.603-8.049-8.049-8.049H371.155z"/>
</g>
<g style="opacity:0.2;">
	<path style="fill:#231F20;" d="M186.786,301.945c0-45.861,34.018-83.758,78.193-89.885c-4.113-0.571-8.308-0.888-12.579-0.888
		c-50.132,0-90.772,40.64-90.772,90.772c0,50.133,40.64,90.773,90.772,90.773c4.271,0,8.467-0.318,12.579-0.888
		C220.805,385.703,186.786,347.806,186.786,301.945z"/>
</g>
<g>
</g>
<g>
</g>
<g>
</g>
<g>
</g>
<g>
</g>
<g>
</g>
<g>
</g>
<g>
</g>
<g>
</g>
<g>
</g>
<g>
</g>
<g>
</g>
<g>
</g>
<g>
</g>
<g>
</g>
</svg>
